<svg xmlns="http://www.w3.org/2000/svg" version="1.1" xmlns:xlink="http://www.w3.org/1999/xlink" xmlns:svgjs="http://svgjs.dev/svgjs" width="1920" height="1080" preserveAspectRatio="none" viewBox="0 0 1920 1080"><g mask="url(&quot;#SvgjsMask1829&quot;)" fill="none"><rect width="1920" height="1080" x="0" y="0" fill="rgba(0, 0, 0, 1)"></rect><path d="M1952 1080L0 1080 L0 747.28Q15.59 666.87, 96 682.45Q78.29 504.75, 256 487.04Q294.44 429.48, 352 467.92Q438.09 458.01, 448 544.11Q553.27 553.38, 544 658.66Q497.18 515.84, 640 469.02Q758.63 427.65, 800 546.28Q906.06 556.34, 896 662.4Q886.34 492.74, 1056 483.08Q1228.12 495.2, 1216 667.32Q1183.77 539.09, 1312 506.85Q1352.1 450.95, 1408 491.05Q1485.83 472.88, 1504 550.71Q1572.06 522.77, 1600 590.82Q1617.39 448.22, 1760 465.61Q1902.07 511.67, 1856 653.74Q1952.28 654.02, 1952 750.3z" fill="rgba(96, 97, 100, 1)"></path><path d="M1984 1080L0 1080 L0 769.55Q125.29 734.84, 160 860.12Q174.2 714.32, 320 728.51Q374.49 687, 416 741.49Q515.27 744.76, 512 844.03Q605 777.03, 672 870.04Q678.74 716.78, 832 723.52Q898.94 630.46, 992 697.4Q1065.87 611.26, 1152 685.13Q1225.05 598.18, 1312 671.24Q1405.19 668.43, 1408 761.62Q1474.28 731.9, 1504 798.18Q1626.88 761.06, 1664 883.94Q1707.51 767.45, 1824 810.96Q1852.62 679.58, 1984 708.2z" fill="rgba(236, 236, 236, 1)"></path><path d="M2016 1080L0 1080 L0 1116.87Q41.83 998.69, 160 1040.52Q222.5 943.02, 320 1005.53Q307.11 896.64, 416 883.75Q560.96 868.71, 576 1013.67Q650.74 992.41, 672 1067.15Q732.58 1031.73, 768 1092.31Q811.15 975.46, 928 1018.62Q986.83 981.45, 1024 1040.29Q1029.1 949.38, 1120 954.48Q1148.59 887.07, 1216 915.65Q1326.43 866.09, 1376 976.52Q1484.07 924.59, 1536 1032.65Q1644.25 1044.9, 1632 1153.15Q1543.56 968.71, 1728 880.27Q1886.07 942.34, 1824 1100.41Q1895.69 1076.1, 1920 1147.79Q1937.31 1069.1, 2016 1086.41z" fill="rgba(181, 186, 185, 1)"></path></g><defs><mask id="SvgjsMask1829"><rect width="1920" height="1080" fill="#ffffff"></rect></mask></defs></svg>